<svg width="670" height="418" viewBox="0 0 670 418" fill="none" xmlns="http://www.w3.org/2000/svg">
<circle opacity="0.8" cx="125" cy="117" r="54" fill="#50AEAE"/>
<circle opacity="0.8" cx="193" cy="117" r="54" fill="#88BCE6"/>
<circle opacity="0.8" cx="261" cy="117" r="54" fill="#C5D652"/>
<path d="M120.208 233.536C120.208 236.139 119.611 238.528 118.416 240.704C117.221 242.837 115.387 244.565 112.912 245.888C110.437 247.211 107.365 247.872 103.696 247.872H96.912V264H85.968V219.072H103.696C107.28 219.072 110.309 219.691 112.784 220.928C115.259 222.165 117.115 223.872 118.352 226.048C119.589 228.224 120.208 230.72 120.208 233.536ZM102.864 239.168C104.955 239.168 106.512 238.677 107.536 237.696C108.56 236.715 109.072 235.328 109.072 233.536C109.072 231.744 108.56 230.357 107.536 229.376C106.512 228.395 104.955 227.904 102.864 227.904H96.912V239.168H102.864ZM147.858 227.904C151.954 227.904 155.239 229.269 157.714 232C160.188 234.688 161.426 238.4 161.426 243.136V264H150.546V244.608C150.546 242.219 149.927 240.363 148.69 239.04C147.452 237.717 145.788 237.056 143.698 237.056C141.607 237.056 139.943 237.717 138.706 239.04C137.468 240.363 136.85 242.219 136.85 244.608V264H125.906V216.64H136.85V233.088C137.959 231.509 139.474 230.251 141.394 229.312C143.314 228.373 145.468 227.904 147.858 227.904ZM185.287 264.512C181.788 264.512 178.631 263.765 175.815 262.272C173.041 260.779 170.844 258.645 169.223 255.872C167.644 253.099 166.855 249.856 166.855 246.144C166.855 242.475 167.665 239.253 169.286 236.48C170.908 233.664 173.127 231.509 175.943 230.016C178.759 228.523 181.916 227.776 185.415 227.776C188.913 227.776 192.071 228.523 194.887 230.016C197.703 231.509 199.921 233.664 201.543 236.48C203.164 239.253 203.975 242.475 203.975 246.144C203.975 249.813 203.143 253.056 201.479 255.872C199.857 258.645 197.617 260.779 194.759 262.272C191.943 263.765 188.785 264.512 185.287 264.512ZM185.287 255.04C187.377 255.04 189.148 254.272 190.599 252.736C192.092 251.2 192.839 249.003 192.839 246.144C192.839 243.285 192.113 241.088 190.663 239.552C189.255 238.016 187.505 237.248 185.415 237.248C183.281 237.248 181.511 238.016 180.103 239.552C178.695 241.045 177.991 243.243 177.991 246.144C177.991 249.003 178.673 251.2 180.039 252.736C181.447 254.272 183.196 255.04 185.287 255.04ZM243.444 245.568C243.444 246.592 243.381 247.659 243.253 248.768H218.485C218.655 250.987 219.359 252.693 220.597 253.888C221.877 255.04 223.434 255.616 225.269 255.616C227.999 255.616 229.898 254.464 230.965 252.16H242.613C242.015 254.507 240.927 256.619 239.349 258.496C237.813 260.373 235.871 261.845 233.525 262.912C231.178 263.979 228.554 264.512 225.653 264.512C222.154 264.512 219.039 263.765 216.309 262.272C213.578 260.779 211.445 258.645 209.909 255.872C208.373 253.099 207.605 249.856 207.605 246.144C207.605 242.432 208.351 239.189 209.845 236.416C211.381 233.643 213.514 231.509 216.245 230.016C218.975 228.523 222.111 227.776 225.653 227.776C229.109 227.776 232.181 228.501 234.869 229.952C237.557 231.403 239.647 233.472 241.141 236.16C242.677 238.848 243.444 241.984 243.444 245.568ZM232.245 242.688C232.245 240.811 231.605 239.317 230.325 238.208C229.045 237.099 227.445 236.544 225.525 236.544C223.69 236.544 222.133 237.077 220.853 238.144C219.615 239.211 218.847 240.725 218.549 242.688H232.245ZM270.978 227.904C275.159 227.904 278.487 229.269 280.962 232C283.479 234.688 284.738 238.4 284.738 243.136V264H273.858V244.608C273.858 242.219 273.239 240.363 272.002 239.04C270.765 237.717 269.101 237.056 267.01 237.056C264.919 237.056 263.255 237.717 262.018 239.04C260.781 240.363 260.162 242.219 260.162 244.608V264H249.218V228.288H260.162V233.024C261.271 231.445 262.765 230.208 264.642 229.312C266.519 228.373 268.631 227.904 270.978 227.904ZM297.847 224.576C295.927 224.576 294.348 224.021 293.111 222.912C291.916 221.76 291.319 220.352 291.319 218.688C291.319 216.981 291.916 215.573 293.111 214.464C294.348 213.312 295.927 212.736 297.847 212.736C299.724 212.736 301.26 213.312 302.455 214.464C303.692 215.573 304.311 216.981 304.311 218.688C304.311 220.352 303.692 221.76 302.455 222.912C301.26 224.021 299.724 224.576 297.847 224.576ZM303.287 228.288V264H292.343V228.288H303.287ZM332.338 264L325.49 254.08L319.73 264H307.89L319.666 245.76L307.57 228.288H319.858L326.706 238.144L332.466 228.288H344.306L332.338 246.272L344.626 264H332.338ZM369.963 264L363.115 254.08L357.355 264H345.515L357.291 245.76L345.195 228.288H357.483L364.331 238.144L370.091 228.288H381.931L369.963 246.272L382.251 264H369.963Z" fill="#73BEBE"/>
<path d="M112.208 298.2H85.392C84.816 298.2 84.432 298.584 84.432 299.16V303.512C84.432 304.088 84.816 304.472 85.392 304.472H95.312V342.04C95.312 342.616 95.696 343 96.272 343H101.328C101.904 343 102.288 342.616 102.288 342.04V304.472H112.208C112.784 304.472 113.168 304.088 113.168 303.512V299.16C113.168 298.584 112.784 298.2 112.208 298.2ZM133.318 312.152C132.422 311.448 131.014 310.936 129.35 310.936C125.766 310.936 123.206 312.856 121.478 315.672L121.222 312.6C121.158 312.024 120.838 311.64 120.262 311.64H115.782C115.206 311.64 114.822 312.024 114.822 312.6V342.04C114.822 342.616 115.206 343 115.782 343H120.582C121.158 343 121.542 342.616 121.542 342.04V323.928C121.542 320.024 124.294 317.08 128.262 317.08C129.478 317.08 130.182 317.272 130.822 317.464C131.462 317.592 131.846 317.528 132.102 316.888L133.574 313.368C133.83 312.856 133.766 312.536 133.318 312.152ZM165.34 311.64H160.988C160.412 311.64 160.092 312.024 160.028 312.6L159.836 316.056C157.404 313.048 153.948 310.936 149.532 310.936C140.7 310.936 134.299 318.232 134.299 327.384C134.299 336.536 140.7 343.832 149.532 343.832C153.948 343.832 157.404 341.784 159.772 338.84L160.028 342.04C160.092 342.616 160.412 343 160.988 343H165.34C165.916 343 166.3 342.616 166.3 342.04V312.6C166.3 312.024 165.916 311.64 165.34 311.64ZM150.236 337.688C144.796 337.688 140.764 333.208 140.764 327.32C140.764 321.432 144.796 317.08 150.236 317.08C155.74 317.08 159.708 321.752 159.708 327.32C159.708 332.952 155.74 337.688 150.236 337.688ZM202.465 296.28H197.665C197.089 296.28 196.705 296.664 196.705 297.24V315.8C194.273 312.92 190.881 310.936 186.657 310.936C177.825 310.936 171.424 318.232 171.424 327.384C171.424 336.536 177.825 343.832 186.657 343.832C191.073 343.832 194.529 341.784 196.897 338.84L197.153 342.04C197.217 342.616 197.537 343 198.113 343H202.465C203.041 343 203.425 342.616 203.425 342.04V297.24C203.425 296.664 203.041 296.28 202.465 296.28ZM187.361 337.688C181.921 337.688 177.889 333.208 177.889 327.32C177.889 321.432 181.921 317.08 187.361 317.08C192.865 317.08 196.833 321.752 196.833 327.32C196.833 332.952 192.865 337.688 187.361 337.688ZM213.089 304.92C215.265 304.92 216.993 303.192 216.993 301.016C216.993 298.84 215.265 297.112 213.089 297.112C210.913 297.112 209.185 298.84 209.185 301.016C209.185 303.192 210.913 304.92 213.089 304.92ZM209.761 312.6V342.04C209.761 342.616 210.145 343 210.721 343H215.521C216.097 343 216.481 342.616 216.481 342.04V312.6C216.481 312.024 216.097 311.64 215.521 311.64H210.721C210.145 311.64 209.761 312.024 209.761 312.6ZM239.532 310.936C234.86 310.936 231.468 313.496 229.292 316.824L229.036 312.6C228.972 312.024 228.652 311.64 228.076 311.64H223.532C222.956 311.64 222.572 312.024 222.572 312.6V342.04C222.572 342.616 222.956 343 223.532 343H228.332C228.908 343 229.292 342.616 229.292 342.04V323.8C229.292 322.456 232.044 317.08 237.484 317.08C241.196 317.08 243.948 319.384 243.948 324.76V342.04C243.948 342.616 244.332 343 244.908 343H249.708C250.284 343 250.668 342.616 250.668 342.04V323.8C250.668 315.416 245.996 310.936 239.532 310.936ZM286.902 311.64H282.55C281.974 311.64 281.654 312.024 281.59 312.6L281.398 315.992C278.966 312.984 275.51 310.936 271.094 310.936C262.262 310.936 255.862 318.232 255.862 327.064C255.862 335.896 262.262 343.192 271.094 343.192C275.638 343.192 279.158 341.08 281.526 338.008V342.232C281.526 348.12 275.766 350.04 271.158 350.04C267.062 350.04 264.182 349.144 261.43 347.736C260.854 347.416 260.406 347.608 260.15 348.12L258.614 350.872C258.358 351.384 258.422 351.896 258.87 352.216C262.006 354.264 266.55 355.672 271.67 355.672C278.838 355.672 287.862 352.408 287.862 342.488V312.6C287.862 312.024 287.478 311.64 286.902 311.64ZM271.798 337.048C266.358 337.048 262.326 332.568 262.326 327C262.326 321.432 266.358 317.08 271.798 317.08C277.302 317.08 281.27 321.752 281.27 327C281.27 332.312 277.302 337.048 271.798 337.048Z" fill="#A0C9EB"/>
<path d="M343.52 298.2H338.464C337.888 298.2 337.504 298.584 337.504 299.16V325.592C337.504 333.336 333.664 337.112 327.904 337.112C322.208 337.112 318.368 333.336 318.368 325.592V299.16C318.368 298.584 317.984 298.2 317.408 298.2H312.352C311.776 298.2 311.392 298.584 311.392 299.16V325.592C311.392 337.496 318.368 343.832 327.904 343.832C337.504 343.832 344.48 337.496 344.48 325.592V299.16C344.48 298.584 344.096 298.2 343.52 298.2ZM384.997 341.848L367.013 317.208L382.885 299.352C383.461 298.776 383.205 298.2 382.373 298.2H375.973C375.525 298.2 375.141 298.328 374.821 298.712L358.501 317.528V299.16C358.501 298.584 358.117 298.2 357.541 298.2H352.485C351.909 298.2 351.525 298.584 351.525 299.16V342.04C351.525 342.616 351.909 343 352.485 343H357.541C358.117 343 358.501 342.616 358.501 342.04V326.808L362.405 322.392L377.189 342.424C377.509 342.872 377.829 343 378.341 343H384.421C385.189 343 385.444 342.488 384.997 341.848Z" fill="#A0C9EB"/>
<path d="M429.6 338.392H412.832V299.16C412.832 298.584 412.448 298.2 411.872 298.2H408.8C408.224 298.2 407.84 298.584 407.84 299.16V342.04C407.84 342.616 408.224 343 408.8 343H429.6C430.176 343 430.56 342.616 430.56 342.04V339.352C430.56 338.776 430.176 338.392 429.6 338.392ZM438.693 304.152C440.421 304.152 441.765 302.808 441.765 301.08C441.765 299.352 440.421 298.008 438.693 298.008C436.965 298.008 435.621 299.352 435.621 301.08C435.621 302.808 436.965 304.152 438.693 304.152ZM436.325 312.6V342.04C436.325 342.616 436.709 343 437.285 343H440.165C440.741 343 441.125 342.616 441.125 342.04V312.6C441.125 312.024 440.741 311.64 440.165 311.64H437.285C436.709 311.64 436.325 312.024 436.325 312.6ZM484.442 310.936C478.81 310.936 475.034 313.752 472.858 317.336C471.194 313.048 467.61 310.936 462.874 310.936C458.074 310.936 454.554 313.624 452.25 317.016L451.994 312.6C451.93 312.024 451.61 311.64 451.034 311.64H448.41C447.834 311.64 447.45 312.024 447.45 312.6V342.04C447.45 342.616 447.834 343 448.41 343H451.29C451.866 343 452.25 342.616 452.25 342.04V322.648C452.25 321.368 455.642 315.224 461.85 315.224C466.33 315.224 469.082 318.168 469.082 323.736V342.04C469.082 342.616 469.466 343 470.042 343H472.922C473.498 343 473.882 342.616 473.882 342.04V323.608C473.882 320.664 476.634 315.224 483.482 315.224C487.962 315.224 490.714 318.168 490.714 323.736V342.04C490.714 342.616 491.098 343 491.674 343H494.554C495.13 343 495.514 342.616 495.514 342.04V323.416C495.514 315.032 491.098 310.936 484.442 310.936ZM504.256 304.152C505.984 304.152 507.328 302.808 507.328 301.08C507.328 299.352 505.984 298.008 504.256 298.008C502.528 298.008 501.184 299.352 501.184 301.08C501.184 302.808 502.528 304.152 504.256 304.152ZM501.888 312.6V342.04C501.888 342.616 502.272 343 502.848 343H505.728C506.304 343 506.688 342.616 506.688 342.04V312.6C506.688 312.024 506.304 311.64 505.728 311.64H502.848C502.272 311.64 501.888 312.024 501.888 312.6ZM526.453 311.64H521.973V303C521.973 302.424 521.589 302.04 521.013 302.04H518.133C517.557 302.04 517.173 302.424 517.173 303V311.64H512.693C512.117 311.64 511.733 312.024 511.733 312.6V314.776C511.733 315.352 512.117 315.736 512.693 315.736H517.173V342.04C517.173 342.616 517.557 343 518.133 343H521.013C521.589 343 521.973 342.616 521.973 342.04V315.736H526.453C527.029 315.736 527.413 315.352 527.413 314.776V312.6C527.413 312.024 527.029 311.64 526.453 311.64ZM546.288 310.936C537.264 310.936 530.928 318.168 530.928 327.384C530.928 336.6 537.456 343.832 546.8 343.832C551.472 343.832 555.568 342.104 558.512 339.032C559.024 338.52 558.96 338.072 558.448 337.56L557.232 336.408C556.72 335.96 556.336 336.152 555.888 336.536C553.84 338.264 551.216 339.672 547.312 339.672C540.656 339.672 536.368 335.32 535.664 329.368H559.152C560.752 329.368 561.007 328.344 561.007 326.168C561.007 318.168 555.312 310.936 546.288 310.936ZM546.288 315.16C552.24 315.16 556.528 319.768 556.784 325.656H535.6C536.24 319.576 540.4 315.16 546.288 315.16ZM595.45 296.28H592.57C591.994 296.28 591.61 296.664 591.61 297.24V316.632C589.178 313.24 585.402 311 580.538 311C571.578 311 565.178 318.232 565.178 327.384C565.178 336.536 571.578 343.768 580.538 343.768C585.402 343.768 589.114 341.528 591.61 338.2L591.866 342.04C591.93 342.616 592.25 343 592.826 343H595.45C596.026 343 596.41 342.616 596.41 342.04V297.24C596.41 296.664 596.026 296.28 595.45 296.28ZM580.922 339.416C574.522 339.416 569.786 334.232 569.786 327.32C569.786 320.472 574.522 315.352 580.922 315.352C587.322 315.352 591.994 320.792 591.994 327.32C591.994 333.912 587.322 339.416 580.922 339.416Z" fill="#A0C9EB"/>
</svg>
