<?xml version="1.0" encoding="UTF-8"?>
<svg xmlns="http://www.w3.org/2000/svg" xmlns:xlink="http://www.w3.org/1999/xlink" width="150px" height="94px" viewBox="0 0 150 94" version="1.1">
<defs>
<filter id="alpha" filterUnits="objectBoundingBox" x="0%" y="0%" width="100%" height="100%">
  <feColorMatrix type="matrix" in="SourceGraphic" values="0 0 0 0 1 0 0 0 0 1 0 0 0 0 1 0 0 0 1 0"/>
</filter>
<mask id="mask0">
  <g filter="url(#alpha)">
<rect x="0" y="0" width="150" height="94" style="fill:rgb(0%,0%,0%);fill-opacity:0.8;stroke:none;"/>
  </g>
</mask>
<clipPath id="clip1">
  <rect x="0" y="0" width="150" height="94"/>
</clipPath>
<g id="surface5" clip-path="url(#clip1)">
<path style=" stroke:none;fill-rule:nonzero;fill:rgb(31.372549%,68.235294%,68.235294%);fill-opacity:1;" d="M 40.074219 26.3125 C 40.074219 33.019531 34.660156 38.453125 27.984375 38.453125 C 21.308594 38.453125 15.894531 33.019531 15.894531 26.3125 C 15.894531 19.605469 21.308594 14.167969 27.984375 14.167969 C 34.660156 14.167969 40.074219 19.605469 40.074219 26.3125 Z M 40.074219 26.3125 "/>
</g>
<mask id="mask1">
  <g filter="url(#alpha)">
<rect x="0" y="0" width="150" height="94" style="fill:rgb(0%,0%,0%);fill-opacity:0.8;stroke:none;"/>
  </g>
</mask>
<clipPath id="clip2">
  <rect x="0" y="0" width="150" height="94"/>
</clipPath>
<g id="surface8" clip-path="url(#clip2)">
<path style=" stroke:none;fill-rule:nonzero;fill:rgb(53.333333%,73.72549%,90.196078%);fill-opacity:1;" d="M 55.296875 26.3125 C 55.296875 33.019531 49.886719 38.453125 43.207031 38.453125 C 36.53125 38.453125 31.121094 33.019531 31.121094 26.3125 C 31.121094 19.605469 36.53125 14.167969 43.207031 14.167969 C 49.886719 14.167969 55.296875 19.605469 55.296875 26.3125 Z M 55.296875 26.3125 "/>
</g>
<mask id="mask2">
  <g filter="url(#alpha)">
<rect x="0" y="0" width="150" height="94" style="fill:rgb(0%,0%,0%);fill-opacity:0.8;stroke:none;"/>
  </g>
</mask>
<clipPath id="clip3">
  <rect x="0" y="0" width="150" height="94"/>
</clipPath>
<g id="surface11" clip-path="url(#clip3)">
<path style=" stroke:none;fill-rule:nonzero;fill:rgb(77.254902%,83.921569%,32.156863%);fill-opacity:1;" d="M 70.523438 26.3125 C 70.523438 33.019531 65.109375 38.453125 58.433594 38.453125 C 51.757812 38.453125 46.34375 33.019531 46.34375 26.3125 C 46.34375 19.605469 51.757812 14.167969 58.433594 14.167969 C 65.109375 14.167969 70.523438 19.605469 70.523438 26.3125 Z M 70.523438 26.3125 "/>
</g>
</defs>
<g id="surface1">
<use xlink:href="#surface5" mask="url(#mask0)"/>
<use xlink:href="#surface8" mask="url(#mask1)"/>
<use xlink:href="#surface11" mask="url(#mask2)"/>
<path style=" stroke:none;fill-rule:nonzero;fill:rgb(45.098039%,74.509804%,74.509804%);fill-opacity:1;" d="M 26.914062 52.519531 C 26.914062 53.101562 26.777344 53.640625 26.511719 54.128906 C 26.242188 54.609375 25.832031 54.996094 25.277344 55.296875 C 24.726562 55.59375 24.035156 55.742188 23.214844 55.742188 L 21.695312 55.742188 L 21.695312 59.367188 L 19.246094 59.367188 L 19.246094 49.265625 L 23.214844 49.265625 C 24.019531 49.265625 24.695312 49.402344 25.25 49.683594 C 25.804688 49.960938 26.21875 50.34375 26.496094 50.832031 C 26.773438 51.324219 26.914062 51.882812 26.914062 52.519531 Z M 23.027344 53.785156 C 23.496094 53.785156 23.847656 53.671875 24.074219 53.453125 C 24.304688 53.234375 24.417969 52.921875 24.417969 52.519531 C 24.417969 52.113281 24.304688 51.804688 24.074219 51.582031 C 23.847656 51.363281 23.496094 51.25 23.027344 51.25 L 21.695312 51.25 L 21.695312 53.785156 Z M 33.101562 51.25 C 34.019531 51.25 34.753906 51.558594 35.308594 52.171875 C 35.863281 52.777344 36.140625 53.613281 36.140625 54.675781 L 36.140625 59.367188 L 33.703125 59.367188 L 33.703125 55.007812 C 33.703125 54.46875 33.566406 54.054688 33.289062 53.753906 C 33.011719 53.457031 32.640625 53.308594 32.171875 53.308594 C 31.703125 53.308594 31.332031 53.457031 31.054688 53.753906 C 30.777344 54.054688 30.636719 54.46875 30.636719 55.007812 L 30.636719 59.367188 L 28.1875 59.367188 L 28.1875 48.71875 L 30.636719 48.71875 L 30.636719 52.417969 C 30.886719 52.0625 31.226562 51.777344 31.65625 51.566406 C 32.085938 51.355469 32.566406 51.25 33.101562 51.25 Z M 41.480469 59.484375 C 40.699219 59.484375 39.992188 59.316406 39.363281 58.980469 C 38.742188 58.644531 38.25 58.164062 37.886719 57.539062 C 37.53125 56.917969 37.355469 56.1875 37.355469 55.351562 C 37.355469 54.527344 37.535156 53.804688 37.898438 53.179688 C 38.261719 52.546875 38.761719 52.0625 39.390625 51.726562 C 40.019531 51.390625 40.726562 51.222656 41.511719 51.222656 C 42.292969 51.222656 43 51.390625 43.632812 51.726562 C 44.261719 52.0625 44.757812 52.546875 45.121094 53.179688 C 45.484375 53.804688 45.667969 54.527344 45.667969 55.351562 C 45.667969 56.179688 45.480469 56.90625 45.105469 57.539062 C 44.742188 58.164062 44.242188 58.644531 43.601562 58.980469 C 42.972656 59.316406 42.265625 59.484375 41.480469 59.484375 Z M 41.480469 57.351562 C 41.949219 57.351562 42.347656 57.179688 42.671875 56.835938 C 43.003906 56.488281 43.171875 55.996094 43.171875 55.351562 C 43.171875 54.710938 43.011719 54.214844 42.6875 53.871094 C 42.371094 53.523438 41.980469 53.351562 41.511719 53.351562 C 41.03125 53.351562 40.636719 53.523438 40.320312 53.871094 C 40.007812 54.207031 39.847656 54.699219 39.847656 55.351562 C 39.847656 55.996094 40 56.488281 40.308594 56.835938 C 40.621094 57.179688 41.015625 57.351562 41.480469 57.351562 Z M 54.503906 55.222656 C 54.503906 55.453125 54.488281 55.695312 54.460938 55.941406 L 48.914062 55.941406 C 48.953125 56.441406 49.109375 56.824219 49.386719 57.09375 C 49.675781 57.351562 50.023438 57.484375 50.433594 57.484375 C 51.042969 57.484375 51.46875 57.222656 51.707031 56.707031 L 54.316406 56.707031 C 54.183594 57.234375 53.9375 57.707031 53.585938 58.128906 C 53.242188 58.554688 52.808594 58.882812 52.28125 59.125 C 51.757812 59.363281 51.167969 59.484375 50.519531 59.484375 C 49.734375 59.484375 49.039062 59.316406 48.425781 58.980469 C 47.816406 58.644531 47.339844 58.164062 46.996094 57.539062 C 46.652344 56.917969 46.480469 56.1875 46.480469 55.351562 C 46.480469 54.519531 46.644531 53.789062 46.980469 53.164062 C 47.324219 52.542969 47.800781 52.0625 48.414062 51.726562 C 49.023438 51.390625 49.726562 51.222656 50.519531 51.222656 C 51.292969 51.222656 51.980469 51.386719 52.582031 51.710938 C 53.183594 52.039062 53.652344 52.503906 53.988281 53.109375 C 54.332031 53.710938 54.503906 54.417969 54.503906 55.222656 Z M 51.996094 54.574219 C 51.996094 54.152344 51.851562 53.816406 51.566406 53.566406 C 51.277344 53.320312 50.921875 53.195312 50.492188 53.195312 C 50.078125 53.195312 49.730469 53.3125 49.445312 53.554688 C 49.167969 53.792969 48.996094 54.132812 48.929688 54.574219 Z M 60.667969 51.25 C 61.601562 51.25 62.347656 51.558594 62.902344 52.171875 C 63.464844 52.777344 63.746094 53.613281 63.746094 54.675781 L 63.746094 59.367188 L 61.3125 59.367188 L 61.3125 55.007812 C 61.3125 54.46875 61.171875 54.054688 60.894531 53.753906 C 60.617188 53.457031 60.246094 53.308594 59.777344 53.308594 C 59.308594 53.308594 58.9375 53.457031 58.660156 53.753906 C 58.382812 54.054688 58.246094 54.46875 58.246094 55.007812 L 58.246094 59.367188 L 55.796875 59.367188 L 55.796875 51.335938 L 58.246094 51.335938 L 58.246094 52.402344 C 58.492188 52.046875 58.828125 51.769531 59.25 51.566406 C 59.667969 51.355469 60.140625 51.25 60.667969 51.25 Z M 66.683594 50.503906 C 66.253906 50.503906 65.898438 50.378906 65.621094 50.128906 C 65.355469 49.871094 65.21875 49.554688 65.21875 49.179688 C 65.21875 48.792969 65.355469 48.476562 65.621094 48.230469 C 65.898438 47.96875 66.253906 47.839844 66.683594 47.839844 C 67.101562 47.839844 67.445312 47.96875 67.714844 48.230469 C 67.992188 48.476562 68.128906 48.792969 68.128906 49.179688 C 68.128906 49.554688 67.992188 49.871094 67.714844 50.128906 C 67.445312 50.378906 67.101562 50.503906 66.683594 50.503906 Z M 67.898438 51.335938 L 67.898438 59.367188 L 65.449219 59.367188 L 65.449219 51.335938 Z M 74.402344 59.367188 L 72.871094 57.136719 L 71.582031 59.367188 L 68.929688 59.367188 L 71.566406 55.265625 L 68.859375 51.335938 L 71.609375 51.335938 L 73.144531 53.554688 L 74.433594 51.335938 L 77.082031 51.335938 L 74.402344 55.382812 L 77.15625 59.367188 Z M 82.828125 59.367188 L 81.292969 57.136719 L 80.003906 59.367188 L 77.355469 59.367188 L 79.992188 55.265625 L 77.28125 51.335938 L 80.035156 51.335938 L 81.566406 53.554688 L 82.855469 51.335938 L 85.507812 51.335938 L 82.828125 55.382812 L 85.578125 59.367188 Z M 82.828125 59.367188 "/>
<path style=" stroke:none;fill-rule:nonzero;fill:rgb(62.745098%,78.823529%,92.156863%);fill-opacity:1;" d="M 25.121094 67.058594 L 19.117188 67.058594 C 18.988281 67.058594 18.902344 67.144531 18.902344 67.273438 L 18.902344 68.253906 C 18.902344 68.382812 18.988281 68.46875 19.117188 68.46875 L 21.339844 68.46875 L 21.339844 76.917969 C 21.339844 77.046875 21.425781 77.132812 21.554688 77.132812 L 22.683594 77.132812 C 22.8125 77.132812 22.898438 77.046875 22.898438 76.917969 L 22.898438 68.46875 L 25.121094 68.46875 C 25.25 68.46875 25.335938 68.382812 25.335938 68.253906 L 25.335938 67.273438 C 25.335938 67.144531 25.25 67.058594 25.121094 67.058594 Z M 29.847656 70.195312 C 29.648438 70.039062 29.332031 69.921875 28.957031 69.921875 C 28.15625 69.921875 27.582031 70.355469 27.195312 70.988281 L 27.140625 70.296875 C 27.125 70.167969 27.054688 70.082031 26.925781 70.082031 L 25.921875 70.082031 C 25.792969 70.082031 25.707031 70.167969 25.707031 70.296875 L 25.707031 76.917969 C 25.707031 77.046875 25.792969 77.132812 25.921875 77.132812 L 26.996094 77.132812 C 27.125 77.132812 27.210938 77.046875 27.210938 76.917969 L 27.210938 72.84375 C 27.210938 71.96875 27.828125 71.304688 28.714844 71.304688 C 28.988281 71.304688 29.144531 71.347656 29.289062 71.390625 C 29.433594 71.421875 29.519531 71.40625 29.574219 71.261719 L 29.90625 70.46875 C 29.960938 70.355469 29.949219 70.285156 29.847656 70.195312 Z M 37.015625 70.082031 L 36.042969 70.082031 C 35.914062 70.082031 35.839844 70.167969 35.828125 70.296875 L 35.785156 71.074219 C 35.238281 70.398438 34.464844 69.921875 33.476562 69.921875 C 31.5 69.921875 30.066406 71.5625 30.066406 73.621094 C 30.066406 75.679688 31.5 77.320312 33.476562 77.320312 C 34.464844 77.320312 35.238281 76.859375 35.769531 76.199219 L 35.828125 76.917969 C 35.839844 77.046875 35.914062 77.132812 36.042969 77.132812 L 37.015625 77.132812 C 37.144531 77.132812 37.230469 77.046875 37.230469 76.917969 L 37.230469 70.296875 C 37.230469 70.167969 37.144531 70.082031 37.015625 70.082031 Z M 33.636719 75.9375 C 32.417969 75.9375 31.515625 74.933594 31.515625 73.609375 C 31.515625 72.285156 32.417969 71.304688 33.636719 71.304688 C 34.867188 71.304688 35.753906 72.355469 35.753906 73.609375 C 35.753906 74.875 34.867188 75.9375 33.636719 75.9375 Z M 45.328125 66.628906 L 44.253906 66.628906 C 44.125 66.628906 44.039062 66.714844 44.039062 66.84375 L 44.039062 71.015625 C 43.492188 70.371094 42.734375 69.921875 41.789062 69.921875 C 39.8125 69.921875 38.378906 71.5625 38.378906 73.621094 C 38.378906 75.679688 39.8125 77.320312 41.789062 77.320312 C 42.777344 77.320312 43.550781 76.859375 44.082031 76.199219 L 44.140625 76.917969 C 44.152344 77.046875 44.226562 77.132812 44.355469 77.132812 L 45.328125 77.132812 C 45.457031 77.132812 45.542969 77.046875 45.542969 76.917969 L 45.542969 66.84375 C 45.542969 66.714844 45.457031 66.628906 45.328125 66.628906 Z M 41.945312 75.9375 C 40.730469 75.9375 39.824219 74.933594 39.824219 73.609375 C 39.824219 72.285156 40.730469 71.304688 41.945312 71.304688 C 43.179688 71.304688 44.066406 72.355469 44.066406 73.609375 C 44.066406 74.875 43.179688 75.9375 41.945312 75.9375 Z M 47.707031 68.570312 C 48.195312 68.570312 48.582031 68.183594 48.582031 67.691406 C 48.582031 67.203125 48.195312 66.816406 47.707031 66.816406 C 47.21875 66.816406 46.832031 67.203125 46.832031 67.691406 C 46.832031 68.183594 47.21875 68.570312 47.707031 68.570312 Z M 46.960938 70.296875 L 46.960938 76.917969 C 46.960938 77.046875 47.046875 77.132812 47.175781 77.132812 L 48.25 77.132812 C 48.378906 77.132812 48.464844 77.046875 48.464844 76.917969 L 48.464844 70.296875 C 48.464844 70.167969 48.378906 70.082031 48.25 70.082031 L 47.175781 70.082031 C 47.046875 70.082031 46.960938 70.167969 46.960938 70.296875 Z M 53.625 69.921875 C 52.582031 69.921875 51.820312 70.5 51.335938 71.246094 L 51.277344 70.296875 C 51.261719 70.167969 51.191406 70.082031 51.0625 70.082031 L 50.042969 70.082031 C 49.914062 70.082031 49.828125 70.167969 49.828125 70.296875 L 49.828125 76.917969 C 49.828125 77.046875 49.914062 77.132812 50.042969 77.132812 L 51.117188 77.132812 C 51.25 77.132812 51.335938 77.046875 51.335938 76.917969 L 51.335938 72.816406 C 51.335938 72.515625 51.949219 71.304688 53.167969 71.304688 C 54 71.304688 54.613281 71.824219 54.613281 73.03125 L 54.613281 76.917969 C 54.613281 77.046875 54.703125 77.132812 54.832031 77.132812 L 55.90625 77.132812 C 56.035156 77.132812 56.121094 77.046875 56.121094 76.917969 L 56.121094 72.816406 C 56.121094 70.929688 55.074219 69.921875 53.625 69.921875 Z M 64.230469 70.082031 L 63.257812 70.082031 C 63.128906 70.082031 63.058594 70.167969 63.042969 70.296875 L 63 71.058594 C 62.453125 70.382812 61.679688 69.921875 60.691406 69.921875 C 58.714844 69.921875 57.28125 71.5625 57.28125 73.550781 C 57.28125 75.535156 58.714844 77.175781 60.691406 77.175781 C 61.710938 77.175781 62.5 76.703125 63.027344 76.011719 L 63.027344 76.960938 C 63.027344 78.285156 61.738281 78.71875 60.707031 78.71875 C 59.789062 78.71875 59.144531 78.515625 58.527344 78.199219 C 58.398438 78.128906 58.300781 78.171875 58.242188 78.285156 L 57.898438 78.902344 C 57.839844 79.019531 57.855469 79.132812 57.957031 79.207031 C 58.65625 79.667969 59.675781 79.984375 60.820312 79.984375 C 62.425781 79.984375 64.445312 79.25 64.445312 77.019531 L 64.445312 70.296875 C 64.445312 70.167969 64.359375 70.082031 64.230469 70.082031 Z M 60.851562 75.796875 C 59.632812 75.796875 58.730469 74.789062 58.730469 73.535156 C 58.730469 72.285156 59.632812 71.304688 60.851562 71.304688 C 62.082031 71.304688 62.972656 72.355469 62.972656 73.535156 C 62.972656 74.730469 62.082031 75.796875 60.851562 75.796875 Z M 60.851562 75.796875 "/>
<path style=" stroke:none;fill-rule:nonzero;fill:rgb(62.745098%,78.823529%,92.156863%);fill-opacity:1;" d="M 76.90625 67.058594 L 75.777344 67.058594 C 75.648438 67.058594 75.5625 67.144531 75.5625 67.273438 L 75.5625 73.21875 C 75.5625 74.960938 74.699219 75.808594 73.410156 75.808594 C 72.136719 75.808594 71.277344 74.960938 71.277344 73.21875 L 71.277344 67.273438 C 71.277344 67.144531 71.191406 67.058594 71.0625 67.058594 L 69.929688 67.058594 C 69.800781 67.058594 69.714844 67.144531 69.714844 67.273438 L 69.714844 73.21875 C 69.714844 75.894531 71.277344 77.320312 73.410156 77.320312 C 75.5625 77.320312 77.121094 75.894531 77.121094 73.21875 L 77.121094 67.273438 C 77.121094 67.144531 77.035156 67.058594 76.90625 67.058594 Z M 86.191406 76.875 L 82.167969 71.332031 L 85.71875 67.320312 C 85.847656 67.1875 85.792969 67.058594 85.605469 67.058594 L 84.171875 67.058594 C 84.074219 67.058594 83.988281 67.089844 83.914062 67.175781 L 80.261719 71.40625 L 80.261719 67.273438 C 80.261719 67.144531 80.175781 67.058594 80.046875 67.058594 L 78.914062 67.058594 C 78.785156 67.058594 78.699219 67.144531 78.699219 67.273438 L 78.699219 76.917969 C 78.699219 77.046875 78.785156 77.132812 78.914062 77.132812 L 80.046875 77.132812 C 80.175781 77.132812 80.261719 77.046875 80.261719 76.917969 L 80.261719 73.492188 L 81.136719 72.5 L 84.445312 77.003906 C 84.515625 77.105469 84.589844 77.132812 84.703125 77.132812 L 86.0625 77.132812 C 86.238281 77.132812 86.292969 77.019531 86.191406 76.875 Z M 86.191406 76.875 "/>
<path style=" stroke:none;fill-rule:nonzero;fill:rgb(62.745098%,78.823529%,92.156863%);fill-opacity:1;" d="M 96.179688 76.097656 L 92.425781 76.097656 L 92.425781 67.273438 C 92.425781 67.144531 92.339844 67.058594 92.210938 67.058594 L 91.523438 67.058594 C 91.394531 67.058594 91.308594 67.144531 91.308594 67.273438 L 91.308594 76.917969 C 91.308594 77.046875 91.394531 77.132812 91.523438 77.132812 L 96.179688 77.132812 C 96.308594 77.132812 96.394531 77.046875 96.394531 76.917969 L 96.394531 76.3125 C 96.394531 76.183594 96.308594 76.097656 96.179688 76.097656 Z M 98.214844 68.398438 C 98.601562 68.398438 98.902344 68.09375 98.902344 67.707031 C 98.902344 67.320312 98.601562 67.015625 98.214844 67.015625 C 97.828125 67.015625 97.527344 67.320312 97.527344 67.707031 C 97.527344 68.09375 97.828125 68.398438 98.214844 68.398438 Z M 97.683594 70.296875 L 97.683594 76.917969 C 97.683594 77.046875 97.769531 77.132812 97.898438 77.132812 L 98.542969 77.132812 C 98.671875 77.132812 98.757812 77.046875 98.757812 76.917969 L 98.757812 70.296875 C 98.757812 70.167969 98.671875 70.082031 98.542969 70.082031 L 97.898438 70.082031 C 97.769531 70.082031 97.683594 70.167969 97.683594 70.296875 Z M 108.457031 69.921875 C 107.195312 69.921875 106.351562 70.558594 105.863281 71.363281 C 105.492188 70.398438 104.6875 69.921875 103.628906 69.921875 C 102.554688 69.921875 101.765625 70.527344 101.25 71.289062 L 101.191406 70.296875 C 101.179688 70.167969 101.105469 70.082031 100.976562 70.082031 L 100.390625 70.082031 C 100.261719 70.082031 100.175781 70.167969 100.175781 70.296875 L 100.175781 76.917969 C 100.175781 77.046875 100.261719 77.132812 100.390625 77.132812 L 101.035156 77.132812 C 101.164062 77.132812 101.25 77.046875 101.25 76.917969 L 101.25 72.558594 C 101.25 72.269531 102.007812 70.886719 103.398438 70.886719 C 104.402344 70.886719 105.019531 71.550781 105.019531 72.800781 L 105.019531 76.917969 C 105.019531 77.046875 105.105469 77.132812 105.234375 77.132812 L 105.878906 77.132812 C 106.007812 77.132812 106.09375 77.046875 106.09375 76.917969 L 106.09375 72.773438 C 106.09375 72.109375 106.710938 70.886719 108.242188 70.886719 C 109.246094 70.886719 109.863281 71.550781 109.863281 72.800781 L 109.863281 76.917969 C 109.863281 77.046875 109.949219 77.132812 110.078125 77.132812 L 110.722656 77.132812 C 110.851562 77.132812 110.9375 77.046875 110.9375 76.917969 L 110.9375 72.730469 C 110.9375 70.84375 109.949219 69.921875 108.457031 69.921875 Z M 112.894531 68.398438 C 113.28125 68.398438 113.582031 68.09375 113.582031 67.707031 C 113.582031 67.320312 113.28125 67.015625 112.894531 67.015625 C 112.507812 67.015625 112.207031 67.320312 112.207031 67.707031 C 112.207031 68.09375 112.507812 68.398438 112.894531 68.398438 Z M 112.363281 70.296875 L 112.363281 76.917969 C 112.363281 77.046875 112.449219 77.132812 112.578125 77.132812 L 113.222656 77.132812 C 113.351562 77.132812 113.4375 77.046875 113.4375 76.917969 L 113.4375 70.296875 C 113.4375 70.167969 113.351562 70.082031 113.222656 70.082031 L 112.578125 70.082031 C 112.449219 70.082031 112.363281 70.167969 112.363281 70.296875 Z M 117.863281 70.082031 L 116.859375 70.082031 L 116.859375 68.140625 C 116.859375 68.007812 116.773438 67.921875 116.644531 67.921875 L 116 67.921875 C 115.871094 67.921875 115.785156 68.007812 115.785156 68.140625 L 115.785156 70.082031 L 114.78125 70.082031 C 114.652344 70.082031 114.566406 70.167969 114.566406 70.296875 L 114.566406 70.785156 C 114.566406 70.917969 114.652344 71.003906 114.78125 71.003906 L 115.785156 71.003906 L 115.785156 76.917969 C 115.785156 77.046875 115.871094 77.132812 116 77.132812 L 116.644531 77.132812 C 116.773438 77.132812 116.859375 77.046875 116.859375 76.917969 L 116.859375 71.003906 L 117.863281 71.003906 C 117.992188 71.003906 118.078125 70.917969 118.078125 70.785156 L 118.078125 70.296875 C 118.078125 70.167969 117.992188 70.082031 117.863281 70.082031 Z M 122.304688 69.921875 C 120.28125 69.921875 118.863281 71.550781 118.863281 73.621094 C 118.863281 75.695312 120.324219 77.320312 122.417969 77.320312 C 123.464844 77.320312 124.382812 76.933594 125.039062 76.242188 C 125.15625 76.125 125.140625 76.027344 125.027344 75.910156 L 124.753906 75.652344 C 124.640625 75.550781 124.554688 75.59375 124.453125 75.679688 C 123.992188 76.070312 123.40625 76.386719 122.53125 76.386719 C 121.042969 76.386719 120.082031 75.40625 119.925781 74.070312 L 125.183594 74.070312 C 125.542969 74.070312 125.597656 73.839844 125.597656 73.347656 C 125.597656 71.550781 124.324219 69.921875 122.304688 69.921875 Z M 122.304688 70.875 C 123.636719 70.875 124.597656 71.910156 124.652344 73.234375 L 119.910156 73.234375 C 120.054688 71.867188 120.984375 70.875 122.304688 70.875 Z M 133.308594 66.628906 L 132.664062 66.628906 C 132.535156 66.628906 132.449219 66.714844 132.449219 66.84375 L 132.449219 71.203125 C 131.90625 70.441406 131.058594 69.9375 129.972656 69.9375 C 127.964844 69.9375 126.53125 71.5625 126.53125 73.621094 C 126.53125 75.679688 127.964844 77.308594 129.972656 77.308594 C 131.058594 77.308594 131.890625 76.804688 132.449219 76.054688 L 132.507812 76.917969 C 132.523438 77.046875 132.59375 77.132812 132.722656 77.132812 L 133.308594 77.132812 C 133.4375 77.132812 133.523438 77.046875 133.523438 76.917969 L 133.523438 66.84375 C 133.523438 66.714844 133.4375 66.628906 133.308594 66.628906 Z M 130.058594 76.328125 C 128.625 76.328125 127.5625 75.164062 127.5625 73.609375 C 127.5625 72.066406 128.625 70.917969 130.058594 70.917969 C 131.488281 70.917969 132.535156 72.140625 132.535156 73.609375 C 132.535156 75.089844 131.488281 76.328125 130.058594 76.328125 Z M 130.058594 76.328125 "/>
</g>
</svg>
